<svg xmlns="http://www.w3.org/2000/svg" viewBox="0 0 1024.33 117.62"><defs><style>.cls-1{fill:#e64a19;}.cls-2{fill:#bf360c;}.cls-3{fill:#fff;}.cls-4{fill:#bdbdbd;}</style></defs><title>Logo</title><g id="Layer_2" data-name="Layer 2"><g id="Layer_1-2" data-name="Layer 1"><polygon class="cls-1" points="29.69 92.47 29.69 68.62 49.97 68.62 49.97 47.05 29.69 47.05 29.69 24.98 49.97 24.98 49.97 1.78 0 1.78 0 115.51 49.97 115.51 49.97 92.47 29.69 92.47"/><rect class="cls-1" x="148.6" y="1.78" width="14.37" height="113.73"/><polygon class="cls-1" points="258.92 1.78 232.8 1.78 232.8 115.51 260.54 115.51 260.54 47.53 284.97 79.72 284.97 36.25 258.92 1.78"/><path class="cls-1" d="M420.18,75.84A35.36,35.36,0,0,1,416,58.57a34.59,34.59,0,0,1,4.22-17,31.52,31.52,0,0,1,11.52-12A30.11,30.11,0,0,1,440,26.12V.44A65.11,65.11,0,0,0,416.2,7.63a57.48,57.48,0,0,0-22.55,21,56.19,56.19,0,0,0-8.19,29.93,58.22,58.22,0,0,0,7.95,30.17,57,57,0,0,0,21.82,21.17A61.28,61.28,0,0,0,440,117.35V91.27a31.36,31.36,0,0,1-19.79-15.43Z"/><path class="cls-2" d="M76.57,55.16a26.44,26.44,0,0,0,14.36-9.08A24.34,24.34,0,0,0,96.2,30.5,23.69,23.69,0,0,0,91,15.25q-5.19-6.49-14.68-10A64.64,64.64,0,0,0,54,1.78H50V25H52.4q6.16-.16,9.73,2.68a9.68,9.68,0,0,1,3.57,8A10.33,10.33,0,0,1,62.13,44q-3.57,3-9.73,3H50V68.62H52.4q7.79-.16,12.33,3a9.88,9.88,0,0,1,4.54,8.52,10.53,10.53,0,0,1-4.54,9.08q-4.54,3.25-12.33,3.25H50v23h6.16q13.3,0,23.2-3.81t15.25-11a27.42,27.42,0,0,0,5.35-16.79,29.14,29.14,0,0,0-6.25-18.82Q87.44,57.27,76.57,55.16Z"/><rect class="cls-2" x="162.97" y="1.78" width="15.32" height="113.73"/><polygon class="cls-2" points="310.67 70.25 284.97 36.25 284.97 79.72 312.13 115.51 338.09 115.51 338.09 1.78 310.51 1.78 310.67 70.25"/><path class="cls-2" d="M446.3,117.62a84,84,0,0,0,25.07-4.14,75.79,75.79,0,0,0,22.31-10.79V57.43H468V86.79q-11,5.52-19.63,5.52a33.84,33.84,0,0,1-8.44-1v26.08Q443.08,117.62,446.3,117.62Z"/><path class="cls-2" d="M448.08,25.15a40.29,40.29,0,0,1,15.82,3.41,47.34,47.34,0,0,1,14.2,9.25L495,17A65.83,65.83,0,0,0,473.55,4.62,73.32,73.32,0,0,0,448.25,0,76.9,76.9,0,0,0,440,.44V26.12A33.47,33.47,0,0,1,448.08,25.15Z"/><polygon class="cls-2" points="629.62 70.25 629.62 46.72 590.97 46.72 590.97 70.36 629.62 70.25"/><rect class="cls-2" x="590.97" y="91.82" width="46.11" height="23.69"/><rect class="cls-2" x="590.97" y="1.78" width="44.49" height="23.69"/><polygon class="cls-1" points="575.44 91.82 575.44 70.41 590.97 70.36 590.97 46.72 575.44 46.72 575.44 25.47 590.97 25.47 590.97 1.78 545.75 1.78 545.75 115.51 590.97 115.51 590.97 91.82 575.44 91.82"/><path class="cls-3" d="M795.09,87.85a33,33,0,0,1-11.44-12.17,34.51,34.51,0,0,1-4.3-17.12,34.72,34.72,0,0,1,4.22-17A31.56,31.56,0,0,1,795,29.53a29.59,29.59,0,0,1,15-4.36V0a64.57,64.57,0,0,0-31,7.62A56.55,56.55,0,0,0,748.86,58.4a58.2,58.2,0,0,0,8,30.26A57.08,57.08,0,0,0,779,109.91a64,64,0,0,0,31,7.7V92.29A28.75,28.75,0,0,1,795.09,87.85Z"/><polygon class="cls-3" points="945.16 1.78 919.04 1.78 919.04 115.51 946.78 115.51 946.78 47.53 967.97 75.45 967.97 31.96 945.16 1.78"/><path class="cls-4" d="M841.74,7.63A64.69,64.69,0,0,0,810.34,0H810V25.17l.7,0a28.81,28.81,0,0,1,15.49,4.38,30.79,30.79,0,0,1,11.11,12.09,35.86,35.86,0,0,1,4.06,17,36.19,36.19,0,0,1-4.06,17.12,31.37,31.37,0,0,1-11.11,12.17,28.4,28.4,0,0,1-15.49,4.46l-.7,0v25.33h.37a63.6,63.6,0,0,0,31.39-7.79A57.56,57.56,0,0,0,871.83,58.4,56.55,56.55,0,0,0,841.74,7.63Z"/><polygon class="cls-4" points="996.75 1.78 996.91 70.25 967.97 31.96 967.97 75.45 998.37 115.51 1024.33 115.51 1024.33 1.78 996.75 1.78"/></g></g></svg>